<svg width="128" height="128" viewBox="0 0 128 128" fill="none" xmlns="http://www.w3.org/2000/svg">
<rect width="128" height="128" fill="url(#paint0_linear)"/>
<path fill-rule="evenodd" clip-rule="evenodd" d="M42.4112 27.9766H85.5888L105.402 64L85.5888 100.023H42.4112L22.5983 64L42.4112 27.9766ZM39.8297 44.699L30.8083 61.1016H38.1895L39.8297 44.699ZM38.1895 66.8984H30.8083L39.8297 83.301L38.1895 66.8984ZM59.1754 94.2266H79.1852L75.8503 87.5566L59.1754 94.2266ZM80.8903 84.6745L83.9972 90.8884L92.5412 75.3538L80.8903 84.6745ZM92.5412 52.6462L83.9972 37.1116L80.8903 43.3255L92.5412 52.6462ZM75.8502 40.4434L59.1754 33.7734H79.1852L75.8502 40.4434ZM70.4561 44.5292L44.2426 58.8274L46.6257 34.997L70.4561 44.5292ZM44.2426 69.1726L46.6257 93.003L70.4561 83.4708L44.2426 69.1726ZM80.1484 77.8444L97.454 64L80.1484 50.1556V77.8444ZM74.3516 49.0075L46.8654 64L74.3516 78.9925V49.0075Z" fill="white"/>
<defs>
<linearGradient id="paint0_linear" x1="64" y1="0" x2="64" y2="128" gradientUnits="userSpaceOnUse">
<stop stop-color="#FFC107"/>
<stop offset="1" stop-color="#FFA000"/>
</linearGradient>
</defs>
</svg>
